<svg width="1280" height="640" viewBox="0 0 1280 640" fill="none" xmlns="http://www.w3.org/2000/svg">
  <rect width="1280" height="640" rx="40" fill="#081120"/>
  <rect x="36" y="36" width="1208" height="568" rx="32" fill="url(#bg)"/>
  <circle cx="1038" cy="152" r="120" fill="#1F6FEB" fill-opacity="0.16"/>
  <circle cx="1108" cy="492" r="164" fill="#38BDF8" fill-opacity="0.08"/>
  <rect x="96" y="120" width="236" height="296" rx="28" fill="#1F6FEB"/>
  <path d="M144 196H284" stroke="white" stroke-width="22" stroke-linecap="round"/>
  <path d="M144 246H284" stroke="white" stroke-width="22" stroke-linecap="round"/>
  <path d="M144 296H236" stroke="white" stroke-width="22" stroke-linecap="round"/>
  <rect x="904" y="224" width="236" height="296" rx="28" fill="#38BDF8"/>
  <path d="M952 300H1092" stroke="#081120" stroke-width="22" stroke-linecap="round"/>
  <path d="M952 350H1092" stroke="#081120" stroke-width="22" stroke-linecap="round"/>
  <path d="M952 400H1044" stroke="#081120" stroke-width="22" stroke-linecap="round"/>
  <path d="M340 270H476" stroke="#7DD3FC" stroke-width="10" stroke-linecap="round" stroke-dasharray="14 14"/>
  <path d="M804 370H896" stroke="#7DD3FC" stroke-width="10" stroke-linecap="round" stroke-dasharray="14 14"/>
  <circle cx="640" cy="320" r="96" fill="#F8FAFC" stroke="#081120" stroke-width="20"/>
  <path d="M594 320H686" stroke="#081120" stroke-width="20" stroke-linecap="round"/>
  <path d="M640 274V366" stroke="#081120" stroke-width="20" stroke-linecap="round"/>
  <text x="392" y="220" fill="#F8FAFC" font-family="Arial, Helvetica, sans-serif" font-size="68" font-weight="700">Markdown AI</text>
  <text x="392" y="300" fill="#F8FAFC" font-family="Arial, Helvetica, sans-serif" font-size="68" font-weight="700">Cross-Review</text>
  <text x="392" y="372" fill="#B8C4D6" font-family="Arial, Helvetica, sans-serif" font-size="30">Compare analyst reports, surface disagreements, and decide with evidence.</text>
  <text x="392" y="432" fill="#7DD3FC" font-family="Arial, Helvetica, sans-serif" font-size="26" font-weight="700">Codex  Claude  Gemini  ChatGPT</text>
  <defs>
    <linearGradient id="bg" x1="76" y1="64" x2="1192" y2="576" gradientUnits="userSpaceOnUse">
      <stop stop-color="#0F172A"/>
      <stop offset="1" stop-color="#0B1220"/>
    </linearGradient>
  </defs>
</svg>
