<svg width="1782" height="856" viewBox="0 0 1782 856" fill="none" xmlns="http://www.w3.org/2000/svg">
  <rect width="1782" height="856" fill="#071224"/>
  <rect width="1782" height="856" fill="url(#grain)" fill-opacity="0.18"/>
  <circle cx="1670" cy="88" r="182" fill="#14356E" fill-opacity="0.45"/>
  <circle cx="42" cy="777" r="170" fill="#16346B" fill-opacity="0.58"/>

  <rect x="112" y="304" width="224" height="224" rx="28" fill="url(#leftCard)"/>
  <path d="M158 369H288" stroke="#F8FAFC" stroke-width="24" stroke-linecap="round"/>
  <path d="M158 426H288" stroke="#F8FAFC" stroke-width="24" stroke-linecap="round"/>
  <path d="M158 483H246" stroke="#F8FAFC" stroke-width="24" stroke-linecap="round"/>

  <rect x="1454" y="304" width="224" height="224" rx="28" fill="url(#rightCard)"/>
  <circle cx="1510" cy="382" r="24" fill="#071224"/>
  <path d="M1562 384H1642" stroke="#071224" stroke-width="22" stroke-linecap="round"/>
  <path d="M1488 442H1642" stroke="#071224" stroke-width="22" stroke-linecap="round"/>
  <path d="M1488 497H1580" stroke="#071224" stroke-width="22" stroke-linecap="round"/>

  <path d="M408 430H650" stroke="#66D7FF" stroke-width="10" stroke-linecap="round" stroke-dasharray="24 18"/>
  <path d="M1132 430H1374" stroke="#66D7FF" stroke-width="10" stroke-linecap="round" stroke-dasharray="24 18"/>

  <circle cx="891" cy="429" r="58" fill="#F8FAFC"/>
  <path d="M864 429H918" stroke="#071224" stroke-width="18" stroke-linecap="round"/>
  <path d="M891 402V456" stroke="#071224" stroke-width="18" stroke-linecap="round"/>

  <text x="575" y="208" fill="#F8FAFC" font-family="Arial, Helvetica, sans-serif" font-size="86" font-weight="700">Markdown AI</text>
  <text x="554" y="318" fill="#F8FAFC" font-family="Arial, Helvetica, sans-serif" font-size="86" font-weight="700">Cross-Review</text>

  <text x="494" y="618" fill="#D7DFEE" font-family="Arial, Helvetica, sans-serif" font-size="34" font-weight="400">Compare reports. Surface disagreements. Decide with confidence.</text>

  <text x="598" y="742" fill="#66D7FF" font-family="Arial, Helvetica, sans-serif" font-size="34" font-weight="700">Codex • Claude • Gemini • ChatGPT</text>

  <defs>
    <linearGradient id="leftCard" x1="102" y1="287" x2="380" y2="565" gradientUnits="userSpaceOnUse">
      <stop stop-color="#3B82F6"/>
      <stop offset="1" stop-color="#1D4ED8"/>
    </linearGradient>
    <linearGradient id="rightCard" x1="1392" y1="286" x2="1670" y2="564" gradientUnits="userSpaceOnUse">
      <stop stop-color="#57D3FF"/>
      <stop offset="1" stop-color="#35B6E6"/>
    </linearGradient>
    <radialGradient id="grain" cx="0" cy="0" r="1" gradientUnits="userSpaceOnUse" gradientTransform="translate(356 93) rotate(37.9092) scale(1707.84 1436.58)">
      <stop stop-color="#11213A"/>
      <stop offset="1" stop-color="#071224"/>
    </radialGradient>
  </defs>
</svg>
